<svg width="162" height="65" viewBox="0 0 162 65" fill="none" xmlns="http://www.w3.org/2000/svg">
<path d="M0.361328 64V0.367188H13.5449V28.5801H14.4238L37.5391 0.367188H53.4473L29.7168 28.8438L53.7109 64H37.8906L20.2246 37.7207L13.5449 45.8066V64H0.361328ZM59.0391 64V0.367188H72.2227V26.7344H99.8203V0.367188H113.092V64H99.8203V37.6328H72.2227V64H59.0391ZM148.215 0.367188H161.311V44.752C161.311 57.1445 152.609 64.8789 139.777 64.8789C128.264 64.8789 119.211 58.8145 119.299 46.2461H132.482C132.57 51.2559 135.646 54.2441 140.393 54.2441C145.402 54.2441 148.215 50.9922 148.215 44.752V0.367188Z" fill="#256EF4"/>
</svg>
