<svg width="273" height="60" viewBox="0 0 273 60" fill="none" xmlns="http://www.w3.org/2000/svg">
<path d="M2.38281 44V15.7188H8.24219V28.2578H8.63281L18.9062 15.7188H25.9766L15.4297 28.375L26.0938 44H19.0625L11.2109 32.3203L8.24219 35.9141V44H2.38281ZM36.9062 44V15.7188H42.7656V27.4375H55.0312V15.7188H60.9297V44H55.0312V32.2812H42.7656V44H36.9062ZM84.9844 15.7188H90.8047V35.4453C90.8047 40.9531 86.9375 44.3906 81.2344 44.3906C76.1172 44.3906 72.0938 41.6953 72.1328 36.1094H77.9922C78.0312 38.3359 79.3984 39.6641 81.5078 39.6641C83.7344 39.6641 84.9844 38.2188 84.9844 35.4453V15.7188Z" fill="#0B50D0"/>
<path d="M115.246 28H111.013V15.9805H115.296C118.915 15.9805 121.123 18.2383 121.123 21.9736C121.123 25.7422 118.915 28 115.246 28ZM113.503 25.8584H115.146C117.438 25.8584 118.633 24.6631 118.633 21.9736C118.633 19.3008 117.438 18.1221 115.163 18.1221H113.503V25.8584ZM122.451 25.4766C122.451 23.4678 124.078 22.8037 125.805 22.7041C126.452 22.6626 127.664 22.6045 128.046 22.5879V21.8574C128.029 21.1104 127.515 20.6621 126.602 20.6621C125.771 20.6621 125.24 21.0439 125.107 21.6582H122.767C122.916 20.0977 124.277 18.8691 126.668 18.8691C128.627 18.8691 130.486 19.749 130.486 21.9238V28H128.162V26.7549H128.096C127.647 27.585 126.801 28.166 125.456 28.166C123.729 28.166 122.451 27.2695 122.451 25.4766ZM124.809 25.4102C124.809 26.1074 125.373 26.4727 126.153 26.4727C127.266 26.4727 128.062 25.7256 128.046 24.7793V24.1152C127.672 24.1318 126.626 24.1899 126.203 24.2314C125.356 24.3145 124.809 24.7129 124.809 25.4102ZM136.446 28.1826C133.69 28.1826 131.997 26.3896 131.997 23.5342C131.997 20.7451 133.707 18.8691 136.347 18.8691C138.721 18.8691 140.58 20.3633 140.58 23.4346V24.1318H134.421C134.421 25.4932 135.234 26.3398 136.496 26.3398C137.326 26.3398 137.924 25.9746 138.173 25.4268H140.514C140.165 27.0869 138.671 28.1826 136.446 28.1826ZM134.421 22.5879H138.256C138.256 21.4922 137.492 20.7119 136.396 20.7119C135.268 20.7119 134.462 21.5503 134.421 22.5879ZM145.444 28.1494C143.386 28.1494 141.775 26.5059 141.775 23.501C141.775 20.4131 143.452 18.8691 145.444 18.8691C146.955 18.8691 147.669 19.7656 148.001 20.4961H148.084V15.9805H150.541V28H148.117V26.5557H148.001C147.652 27.3027 146.905 28.1494 145.444 28.1494ZM146.208 26.1904C147.437 26.1904 148.134 25.1113 148.134 23.4844C148.134 21.8574 147.437 20.8281 146.208 20.8281C144.963 20.8281 144.299 21.9072 144.299 23.4844C144.299 25.0781 144.963 26.1904 146.208 26.1904ZM156.601 28.1826C153.845 28.1826 152.151 26.3896 152.151 23.5342C152.151 20.7451 153.861 18.8691 156.501 18.8691C158.875 18.8691 160.734 20.3633 160.734 23.4346V24.1318H154.575C154.575 25.4932 155.389 26.3398 156.65 26.3398C157.48 26.3398 158.078 25.9746 158.327 25.4268H160.668C160.319 27.0869 158.825 28.1826 156.601 28.1826ZM154.575 22.5879H158.41C158.41 21.4922 157.646 20.7119 156.551 20.7119C155.422 20.7119 154.617 21.5503 154.575 22.5879ZM166.329 28.1826C163.606 28.1826 161.913 26.3066 161.913 23.5176C161.913 20.7285 163.606 18.8691 166.329 18.8691C169.052 18.8691 170.762 20.7285 170.762 23.5176C170.762 26.3066 169.052 28.1826 166.329 28.1826ZM166.346 26.2734C167.607 26.2734 168.255 25.0947 168.255 23.5176C168.255 21.9238 167.607 20.7451 166.346 20.7451C165.067 20.7451 164.403 21.9238 164.403 23.5176C164.403 25.0947 165.067 26.2734 166.346 26.2734ZM172.306 28V15.9805H174.763V22.4385H174.896L177.817 18.9854H180.64L177.286 22.8867L180.822 28H177.934L175.46 24.3311L174.763 25.1113V28H172.306ZM193.257 19.417C193.157 18.4707 192.394 17.9062 191.182 17.9062C189.92 17.9062 189.223 18.4873 189.206 19.2842C189.189 20.1475 190.103 20.5459 191.132 20.7783L192.211 21.0439C194.27 21.5088 195.813 22.5547 195.813 24.5635C195.813 26.7715 194.087 28.166 191.165 28.166C188.26 28.166 186.4 26.8213 186.334 24.248H188.758C188.841 25.46 189.804 26.0742 191.132 26.0742C192.443 26.0742 193.29 25.46 193.29 24.5635C193.29 23.75 192.543 23.3682 191.231 23.0361L189.92 22.7207C187.895 22.2227 186.649 21.21 186.649 19.4502C186.649 17.2588 188.575 15.8145 191.198 15.8145C193.854 15.8145 195.614 17.292 195.647 19.417H193.257ZM201.441 28.1826C198.719 28.1826 197.025 26.3066 197.025 23.5176C197.025 20.7285 198.719 18.8691 201.441 18.8691C204.164 18.8691 205.874 20.7285 205.874 23.5176C205.874 26.3066 204.164 28.1826 201.441 28.1826ZM201.458 26.2734C202.72 26.2734 203.367 25.0947 203.367 23.5176C203.367 21.9238 202.72 20.7451 201.458 20.7451C200.18 20.7451 199.516 21.9238 199.516 23.5176C199.516 25.0947 200.18 26.2734 201.458 26.2734ZM212.216 18.9854V20.8281H210.423V28H207.966V20.8281H206.688V18.9854H207.966V18.3047C207.966 16.4121 209.111 15.416 210.921 15.416C211.485 15.416 211.95 15.4658 212.382 15.5654V17.4248C212.033 17.3916 211.768 17.375 211.635 17.375C210.838 17.375 210.423 17.6904 210.423 18.4375V18.9854H212.216ZM218.408 18.9854V20.8281H216.715V25.2275C216.715 25.9414 217.063 26.124 217.562 26.1406C217.811 26.1406 218.242 26.124 218.541 26.0908V28.0332C218.275 28.083 217.844 28.1162 217.229 28.1162C215.453 28.1162 214.241 27.3193 214.258 25.5762V20.8281H213.013V18.9854H214.258V16.8271H216.715V18.9854H218.408ZM222.027 28L219.271 18.9854H221.762L223.306 25.0781H223.389L224.733 19.915H227.174L228.502 25.0449H228.585L230.146 18.9854H232.636L229.863 28H227.406L226.012 23.0527H225.896L224.484 28H222.027ZM233.449 25.4766C233.449 23.4678 235.076 22.8037 236.803 22.7041C237.45 22.6626 238.662 22.6045 239.044 22.5879V21.8574C239.027 21.1104 238.513 20.6621 237.6 20.6621C236.77 20.6621 236.238 21.0439 236.105 21.6582H233.765C233.914 20.0977 235.275 18.8691 237.666 18.8691C239.625 18.8691 241.484 19.749 241.484 21.9238V28H239.16V26.7549H239.094C238.646 27.585 237.799 28.166 236.454 28.166C234.728 28.166 233.449 27.2695 233.449 25.4766ZM235.807 25.4102C235.807 26.1074 236.371 26.4727 237.151 26.4727C238.264 26.4727 239.061 25.7256 239.044 24.7793V24.1152C238.67 24.1318 237.625 24.1899 237.201 24.2314C236.354 24.3145 235.807 24.7129 235.807 25.4102ZM243.36 28V18.9854H245.734V20.5459H245.834C246.166 19.4336 246.996 18.8525 248.009 18.8525C248.258 18.8525 248.573 18.8857 248.789 18.9355V21.127C248.557 21.0605 248.092 20.9941 247.743 20.9941C246.631 20.9941 245.817 21.7744 245.817 22.8701V28H243.36ZM253.786 28.1826C251.03 28.1826 249.337 26.3896 249.337 23.5342C249.337 20.7451 251.047 18.8691 253.687 18.8691C256.061 18.8691 257.92 20.3633 257.92 23.4346V24.1318H251.761C251.761 25.4932 252.574 26.3398 253.836 26.3398C254.666 26.3398 255.264 25.9746 255.513 25.4268H257.854C257.505 27.0869 256.011 28.1826 253.786 28.1826ZM251.761 22.5879H255.596C255.596 21.4922 254.832 20.7119 253.736 20.7119C252.607 20.7119 251.802 21.5503 251.761 22.5879ZM119.048 36.1641C118.849 34.8359 117.819 34.0225 116.425 34.0225C114.549 34.0225 113.32 35.4668 113.32 37.9902C113.32 40.5801 114.565 41.958 116.408 41.958C117.786 41.958 118.799 41.1943 119.048 39.8994L121.571 39.916C121.289 42.1406 119.43 44.166 116.375 44.166C113.154 44.166 110.78 41.9082 110.78 37.9902C110.78 34.0723 113.204 31.8145 116.375 31.8145C119.147 31.8145 121.239 33.4082 121.571 36.1641H119.048ZM127.315 44.1826C124.593 44.1826 122.899 42.3066 122.899 39.5176C122.899 36.7285 124.593 34.8691 127.315 34.8691C130.038 34.8691 131.748 36.7285 131.748 39.5176C131.748 42.3066 130.038 44.1826 127.315 44.1826ZM127.332 42.2734C128.594 42.2734 129.241 41.0947 129.241 39.5176C129.241 37.9238 128.594 36.7451 127.332 36.7451C126.054 36.7451 125.39 37.9238 125.39 39.5176C125.39 41.0947 126.054 42.2734 127.332 42.2734ZM136.612 44.1494C134.554 44.1494 132.943 42.5059 132.943 39.501C132.943 36.4131 134.62 34.8691 136.612 34.8691C138.123 34.8691 138.837 35.7656 139.169 36.4961H139.252V31.9805H141.709V44H139.285V42.5557H139.169C138.82 43.3027 138.073 44.1494 136.612 44.1494ZM137.376 42.1904C138.604 42.1904 139.302 41.1113 139.302 39.4844C139.302 37.8574 138.604 36.8281 137.376 36.8281C136.131 36.8281 135.467 37.9072 135.467 39.4844C135.467 41.0781 136.131 42.1904 137.376 42.1904ZM143.685 44V34.9854H146.142V44H143.685ZM144.913 33.8066C144.166 33.8066 143.568 33.2422 143.568 32.5615C143.568 31.8643 144.166 31.2998 144.913 31.2998C145.644 31.2998 146.241 31.8643 146.241 32.5615C146.241 33.2422 145.644 33.8066 144.913 33.8066ZM150.508 38.7871V44H148.051V34.9854H150.392V36.5625H150.491C150.906 35.5166 151.869 34.8691 153.197 34.8691C155.073 34.8691 156.318 36.1475 156.302 38.2559V44H153.861V38.6875C153.861 37.5752 153.247 36.9111 152.234 36.9111C151.205 36.9111 150.508 37.5918 150.508 38.7871ZM162.262 47.5693C159.771 47.5693 158.244 46.457 158.095 44.7471H160.519C160.651 45.4609 161.332 45.793 162.312 45.793C163.457 45.793 164.221 45.3115 164.221 44.0498V42.4062H164.104C163.772 43.1367 162.976 43.8672 161.531 43.8672C159.489 43.8672 157.862 42.4395 157.862 39.4346C157.862 36.3799 159.539 34.8691 161.531 34.8691C163.042 34.8691 163.772 35.7656 164.104 36.4961H164.204V34.9854H166.645V44.0996C166.645 46.3906 164.818 47.5693 162.262 47.5693ZM162.295 42.0244C163.523 42.0244 164.221 41.0615 164.221 39.4678C164.221 37.8574 163.523 36.8281 162.295 36.8281C161.05 36.8281 160.386 37.9072 160.386 39.4678C160.386 41.0283 161.05 42.0244 162.295 42.0244ZM173.036 34.0391V31.9805H182.881V34.0391H179.195V44H176.722V34.0391H173.036ZM187.147 44.1826C184.392 44.1826 182.698 42.3896 182.698 39.5342C182.698 36.7451 184.408 34.8691 187.048 34.8691C189.422 34.8691 191.281 36.3633 191.281 39.4346V40.1318H185.122C185.122 41.4932 185.936 42.3398 187.197 42.3398C188.027 42.3398 188.625 41.9746 188.874 41.4268H191.215C190.866 43.0869 189.372 44.1826 187.147 44.1826ZM185.122 38.5879H188.957C188.957 37.4922 188.193 36.7119 187.098 36.7119C185.969 36.7119 185.164 37.5503 185.122 38.5879ZM197.972 37.6582C197.872 37.0273 197.308 36.6123 196.494 36.6123C195.697 36.6123 195.083 36.9941 195.1 37.542C195.083 37.9404 195.415 38.2559 196.262 38.4385L197.872 38.7705C199.615 39.1357 200.462 39.916 200.479 41.2109C200.462 42.9873 198.868 44.1826 196.478 44.1826C194.037 44.1826 192.609 43.0869 192.41 41.3271H194.884C195 42.041 195.581 42.4062 196.478 42.4062C197.374 42.4062 197.972 42.041 197.972 41.46C197.972 40.9951 197.59 40.7129 196.743 40.5303L195.249 40.2314C193.539 39.8994 192.643 39.0029 192.659 37.6748C192.643 35.9482 194.137 34.8691 196.461 34.8691C198.735 34.8691 200.146 35.9482 200.279 37.6582H197.972ZM206.737 34.9854V36.8281H205.044V41.2275C205.044 41.9414 205.393 42.124 205.891 42.1406C206.14 42.1406 206.571 42.124 206.87 42.0908V44.0332C206.604 44.083 206.173 44.1162 205.559 44.1162C203.782 44.1162 202.57 43.3193 202.587 41.5762V36.8281H201.342V34.9854H202.587V32.8271H205.044V34.9854H206.737ZM219.753 35.417C219.653 34.4707 218.89 33.9062 217.678 33.9062C216.416 33.9062 215.719 34.4873 215.702 35.2842C215.686 36.1475 216.599 36.5459 217.628 36.7783L218.707 37.0439C220.766 37.5088 222.31 38.5547 222.31 40.5635C222.31 42.7715 220.583 44.166 217.661 44.166C214.756 44.166 212.896 42.8213 212.83 40.248H215.254C215.337 41.46 216.3 42.0742 217.628 42.0742C218.939 42.0742 219.786 41.46 219.786 40.5635C219.786 39.75 219.039 39.3682 217.728 39.0361L216.416 38.7207C214.391 38.2227 213.146 37.21 213.146 35.4502C213.146 33.2588 215.071 31.8145 217.694 31.8145C220.351 31.8145 222.11 33.292 222.144 35.417H219.753ZM225.331 47.3867C224.85 47.3867 224.401 47.3701 224.086 47.3369V45.4277C224.401 45.4443 224.767 45.4609 225.082 45.4609C225.563 45.4609 225.962 45.4111 226.261 44.6309L226.41 44.249L223.173 34.9854H225.746L227.639 41.626H227.738L229.647 34.9854H232.254L228.734 44.9961C228.22 46.4404 227.24 47.3867 225.331 47.3867ZM238.596 37.6582C238.496 37.0273 237.932 36.6123 237.118 36.6123C236.321 36.6123 235.707 36.9941 235.724 37.542C235.707 37.9404 236.039 38.2559 236.886 38.4385L238.496 38.7705C240.239 39.1357 241.086 39.916 241.103 41.2109C241.086 42.9873 239.492 44.1826 237.102 44.1826C234.661 44.1826 233.233 43.0869 233.034 41.3271H235.508C235.624 42.041 236.205 42.4062 237.102 42.4062C237.998 42.4062 238.596 42.041 238.596 41.46C238.596 40.9951 238.214 40.7129 237.367 40.5303L235.873 40.2314C234.163 39.8994 233.267 39.0029 233.283 37.6748C233.267 35.9482 234.761 34.8691 237.085 34.8691C239.359 34.8691 240.771 35.9482 240.903 37.6582H238.596ZM247.361 34.9854V36.8281H245.668V41.2275C245.668 41.9414 246.017 42.124 246.515 42.1406C246.764 42.1406 247.195 42.124 247.494 42.0908V44.0332C247.229 44.083 246.797 44.1162 246.183 44.1162C244.406 44.1162 243.194 43.3193 243.211 41.5762V36.8281H241.966V34.9854H243.211V32.8271H245.668V34.9854H247.361ZM252.89 44.1826C250.134 44.1826 248.44 42.3896 248.44 39.5342C248.44 36.7451 250.15 34.8691 252.79 34.8691C255.164 34.8691 257.023 36.3633 257.023 39.4346V40.1318H250.864C250.864 41.4932 251.678 42.3398 252.939 42.3398C253.77 42.3398 254.367 41.9746 254.616 41.4268H256.957C256.608 43.0869 255.114 44.1826 252.89 44.1826ZM250.864 38.5879H254.699C254.699 37.4922 253.936 36.7119 252.84 36.7119C251.711 36.7119 250.906 37.5503 250.864 38.5879ZM258.567 44V34.9854H260.908V36.5625H261.008C261.39 35.5166 262.303 34.8691 263.515 34.8691C264.76 34.8691 265.673 35.5166 265.972 36.5625H266.055C266.437 35.5332 267.449 34.8691 268.777 34.8691C270.454 34.8691 271.616 35.9814 271.616 37.9404V44H269.159V38.4219C269.159 37.3926 268.562 36.8945 267.748 36.8945C266.818 36.8945 266.287 37.542 266.287 38.4883V44H263.896V38.3555C263.896 37.459 263.332 36.8945 262.502 36.8945C261.672 36.8945 261.024 37.5586 261.024 38.5879V44H258.567Z" fill="#86AFF9"/>
</svg>
