<svg width="108" height="37" viewBox="0 0 108 37" fill="none" xmlns="http://www.w3.org/2000/svg">
<path d="M0.978516 36V0.648438H8.30273V16.3223H8.79102L21.6328 0.648438H30.4707L17.2871 16.4688L30.6172 36H21.8281L12.0137 21.4004L8.30273 25.8926V36H0.978516ZM42.1328 36V0.648438H49.457V15.2969H64.7891V0.648438H72.1621V36H64.7891V21.3516H49.457V36H42.1328ZM100.23 0.648438H107.506V25.3066C107.506 32.1914 102.672 36.4883 95.543 36.4883C89.1465 36.4883 84.1172 33.1191 84.166 26.1367H91.4902C91.5391 28.9199 93.248 30.5801 95.8848 30.5801C98.668 30.5801 100.23 28.7734 100.23 25.3066V0.648438Z" fill="#0B50D0"/>
</svg>
