<svg width="1182" height="552" viewBox="0 0 1182 552" fill="none" xmlns="http://www.w3.org/2000/svg">
<mask id="path-1-inside-1_268_1876" fill="white">
<path d="M282.959 0C395.004 0 485.926 89.4776 486.713 200.151L546.43 259.869C546.66 260.099 546.87 260.343 547.062 260.595C556.038 269.6 561.601 282.1 561.601 295.92C561.601 323.357 539.68 345.6 512.641 345.6C503.121 345.6 494.237 342.84 486.72 338.069V435.456C487.666 440.887 488.16 446.468 488.16 452.16C488.16 507.035 442.385 551.52 385.92 551.521C337.616 551.521 297.137 518.965 286.444 475.2H280.897C270.129 518.965 229.366 551.521 180.722 551.521C124.857 551.52 79.3849 508.583 77.8057 455.04H77.7617V336.095C69.6792 342.071 59.7264 345.6 48.96 345.6C21.9201 345.6 0 323.357 0 295.92C3.72804e-05 281.113 6.38598 267.82 16.5137 258.719L79.2773 195.955C82.2987 87.2247 172.334 0.000128367 282.959 0Z"/>
</mask>
<path d="M282.959 0L282.959 -9L282.959 -9L282.959 0ZM486.713 200.151L477.713 200.215L477.739 203.906L480.349 206.515L486.713 200.151ZM546.43 259.869L540.066 266.233L540.066 266.233L546.43 259.869ZM547.062 260.595L539.913 266.062L540.271 266.53L540.688 266.948L547.062 260.595ZM561.601 295.92L570.601 295.92L570.601 295.92L561.601 295.92ZM512.641 345.6L512.641 354.6H512.641V345.6ZM486.72 338.069L491.542 330.47L477.72 321.699V338.069H486.72ZM486.72 435.456H477.72V436.234L477.853 437.001L486.72 435.456ZM488.16 452.16L497.16 452.16V452.16H488.16ZM385.92 551.521L385.92 560.521L385.92 560.521L385.92 551.521ZM286.444 475.2L295.187 473.064L293.51 466.2H286.444V475.2ZM280.897 475.2V466.2H273.843L272.158 473.05L280.897 475.2ZM180.722 551.521L180.722 560.521H180.722V551.521ZM77.8057 455.04L86.8018 454.775L86.5441 446.04H77.8057V455.04ZM77.7617 455.04H68.7617V464.04H77.7617V455.04ZM77.7617 336.095H86.7617V318.247L72.4108 328.858L77.7617 336.095ZM48.96 345.6L48.96 354.6H48.96V345.6ZM0 295.92L-9 295.92V295.92H0ZM16.5137 258.719L22.5295 265.413L22.708 265.252L22.8776 265.083L16.5137 258.719ZM79.2773 195.955L85.6413 202.319L88.1744 199.786L88.2739 196.205L79.2773 195.955ZM282.959 0V9C390.145 9 476.962 94.5727 477.713 200.215L486.713 200.151L495.713 200.087C494.89 84.3824 399.864 -9 282.959 -9V0ZM486.713 200.151L480.349 206.515L540.066 266.233L546.43 259.869L552.794 253.505L493.077 193.787L486.713 200.151ZM546.43 259.869L540.066 266.233C539.987 266.155 539.937 266.093 539.913 266.062L547.062 260.595L554.212 255.128C553.802 254.592 553.333 254.044 552.794 253.505L546.43 259.869ZM547.062 260.595L540.688 266.948C548.037 274.322 552.601 284.56 552.601 295.92L561.601 295.92L570.601 295.92C570.601 279.641 564.038 264.878 553.437 254.241L547.062 260.595ZM561.601 295.92H552.601C552.601 318.511 534.587 336.6 512.641 336.6V345.6V354.6C544.774 354.6 570.601 328.204 570.601 295.92H561.601ZM512.641 345.6L512.641 336.6C504.887 336.6 497.668 334.358 491.542 330.47L486.72 338.069L481.898 345.669C490.807 351.322 501.354 354.6 512.641 354.6L512.641 345.6ZM486.72 338.069H477.72V435.456H486.72H495.72V338.069H486.72ZM486.72 435.456L477.853 437.001C478.711 441.926 479.16 446.99 479.16 452.16H488.16H497.16C497.16 445.945 496.62 439.848 495.586 433.912L486.72 435.456ZM488.16 452.16L479.16 452.16C479.16 501.824 437.659 542.52 385.92 542.521L385.92 551.521L385.92 560.521C447.112 560.52 497.16 512.246 497.16 452.16L488.16 452.16ZM385.92 551.521V542.521C341.696 542.521 304.879 512.734 295.187 473.064L286.444 475.2L277.702 477.336C289.395 525.196 333.536 560.521 385.92 560.521V551.521ZM286.444 475.2V466.2H280.897V475.2V484.2H286.444V475.2ZM280.897 475.2L272.158 473.05C262.405 512.689 225.331 542.521 180.722 542.521V551.521V560.521C233.401 560.521 277.854 525.241 289.637 477.35L280.897 475.2ZM180.722 551.521L180.722 542.521C129.447 542.52 88.2295 503.181 86.8018 454.775L77.8057 455.04L68.8096 455.305C70.5403 513.986 120.266 560.52 180.722 560.521L180.722 551.521ZM77.8057 455.04V446.04H77.7617V455.04V464.04H77.8057V455.04ZM77.7617 455.04H86.7617V336.095H77.7617H68.7617V455.04H77.7617ZM77.7617 336.095L72.4108 328.858C65.815 333.735 57.724 336.6 48.96 336.6V345.6V354.6C61.7288 354.6 73.5434 350.407 83.1126 343.331L77.7617 336.095ZM48.96 345.6L48.96 336.6C27.014 336.6 9 318.511 9 295.92H0H-9C-9 328.204 16.8262 354.6 48.96 354.6L48.96 345.6ZM0 295.92L9 295.92C9.00003 283.75 14.238 272.864 22.5295 265.413L16.5137 258.719L10.4978 252.025C-1.46599 262.777 -8.99996 278.475 -9 295.92L0 295.92ZM16.5137 258.719L22.8776 265.083L85.6413 202.319L79.2773 195.955L72.9134 189.591L10.1497 252.355L16.5137 258.719ZM79.2773 195.955L88.2739 196.205C91.1578 92.419 177.133 9.00012 282.959 9L282.959 0L282.959 -9C167.534 -8.99987 73.4396 82.0304 70.2808 195.705L79.2773 195.955Z" fill="#256EF4" mask="url(#path-1-inside-1_268_1876)"/>
<path d="M273 452V474H294V452H292.25H273Z" fill="#256EF4"/>
<rect x="190.08" y="208.36" width="172.8" height="11.52" fill="#256EF4"/>
<rect x="325.439" y="218.88" width="11.52" height="30.24" fill="#256EF4"/>
<rect x="424.799" y="282.026" width="9.87899" height="78.4329" transform="rotate(-45 424.799 282.026)" fill="#256EF4"/>
<path d="M311.039 257.76H311.085C311.777 263.389 320.517 267.84 331.199 267.84C341.881 267.84 350.622 263.389 351.313 257.76H351.359V218.88H362.879V259.157C362.879 259.171 362.88 259.185 362.88 259.199C362.88 269.538 348.696 277.92 331.199 277.92C313.703 277.92 299.52 269.539 299.52 259.2V218.88H311.039V257.76Z" fill="#256EF4"/>
<path d="M351.942 129.105L338.195 142.852L351.942 156.599L343.796 164.744L330.05 150.997L316.304 164.744L308.158 156.599L321.904 142.852L308.158 129.105L316.304 120.96L330.05 134.706L343.797 120.96L351.942 129.105Z" fill="#256EF4"/>
<path d="M233.863 129.105L220.116 142.853L233.862 156.599L225.716 164.744L211.971 150.998L198.226 164.744L190.079 156.599L203.824 142.853L190.078 129.105L198.224 120.96L211.971 134.707L225.718 120.96L233.863 129.105Z" fill="#256EF4"/>
<path d="M741.438 166.662L743.617 88.0844L765.087 87.6485L763.343 165.572L774.242 165.136L774.024 184.1L762.907 184.536L761.273 249.054L739.367 249.272L741.002 185.625L659.263 189.222L653.487 174.727L691.196 90.809L712.448 94.6235L679.425 169.387L741.438 166.662ZM940.434 167.97C940.434 175.89 939.635 183.373 938.037 190.421C934.912 204.661 929.1 217.086 920.599 227.693C916.24 233.07 911.626 237.466 906.758 240.881C901.672 244.586 896.187 247.42 890.301 249.381C884.489 251.416 878.422 252.433 872.101 252.433C865.562 252.433 859.35 251.452 853.465 249.49C841.694 245.494 831.668 238.229 823.385 227.693C819.316 222.535 815.865 216.831 813.032 210.583C810.125 204.334 807.873 197.614 806.274 190.421C804.749 183.228 803.986 175.744 803.986 167.97C803.986 160.196 804.749 152.712 806.274 145.519C809.326 131.061 814.957 118.636 823.167 108.247C827.236 103.088 831.777 98.6922 836.79 95.0594C841.803 91.4266 847.289 88.6294 853.247 86.6676C859.205 84.6333 865.489 83.6161 872.101 83.6161C879.076 83.6161 885.542 84.5969 891.5 86.5586C903.634 90.6274 913.733 97.8567 921.798 108.247C925.794 113.26 929.173 118.963 931.933 125.357C937.601 138.145 940.434 152.349 940.434 167.97ZM918.746 167.97C918.746 159.324 917.693 151.223 915.586 143.666C913.551 136.038 910.5 129.39 906.431 123.722C902.435 118.055 897.531 113.587 891.718 110.317C885.906 106.975 879.367 105.304 872.101 105.304C864.981 105.304 858.587 106.975 852.92 110.317C847.253 113.587 842.385 118.055 838.316 123.722C834.32 129.39 831.196 136.038 828.943 143.666C826.764 151.223 825.674 159.324 825.674 167.97C825.674 185.771 829.924 200.556 838.425 212.327C842.494 217.994 847.362 222.498 853.029 225.841C858.769 229.11 865.126 230.745 872.101 230.745C879.149 230.745 885.542 229.11 891.282 225.841C897.022 222.498 901.926 217.994 905.995 212.327C914.496 200.556 918.746 185.771 918.746 167.97ZM1052.46 166.662L1054.64 88.0844L1076.11 87.6485L1074.37 165.572L1085.27 165.136L1085.05 184.1L1073.93 184.536L1072.3 249.054L1050.39 249.272L1052.03 185.625L970.287 189.222L964.511 174.727L1002.22 90.809L1023.47 94.6235L990.449 169.387L1052.46 166.662Z" fill="#256EF4"/>
<path d="M664.786 322.191L701.122 320.723L701.366 332.468L665.03 334.242L665.275 353.389L718.128 350.392L718.372 362.442L653.775 365.929L652.368 278.759L718.8 277.719L718.372 289.403L664.419 290.26L664.786 322.191ZM808.478 310.446C808.356 313.587 807.724 316.462 806.582 319.072C805.44 321.682 803.931 324.027 802.055 326.106C800.179 328.227 797.998 330.123 795.51 331.795C793.022 333.427 790.372 334.834 787.558 336.016L805.359 364.033L792.696 368.193L775.568 339.625C773.61 339.992 771.571 340.298 769.451 340.543C767.371 340.788 765.067 340.91 762.538 340.91C760.499 340.91 758.256 340.828 755.809 340.665C753.403 340.461 750.875 340.115 748.224 339.625L748.469 365.562L735.562 366.052V279.493C739.069 278.433 742.576 277.638 746.083 277.108C749.59 276.578 752.792 276.17 755.687 275.884C759.072 275.558 762.314 275.375 765.413 275.334C768.064 275.334 771 275.517 774.222 275.884C777.444 276.251 780.666 276.904 783.887 277.842C787.15 278.78 790.31 280.085 793.369 281.757C796.387 283.429 799.058 285.549 801.383 288.119C803.666 290.729 805.461 293.869 806.766 297.539C808.071 301.209 808.642 305.512 808.478 310.446ZM765.413 287.629C764.475 287.629 763.517 287.65 762.538 287.69C761.6 287.731 760.622 287.792 759.602 287.874C757.889 287.996 755.993 288.18 753.913 288.425C751.833 288.628 749.815 288.955 747.857 289.403L748.102 328.37C750.019 328.737 751.935 329.002 753.852 329.165C755.809 329.287 757.706 329.349 759.541 329.349C764.435 329.349 769.063 328.798 773.427 327.697C777.831 326.555 781.685 325.005 784.988 323.048C788.292 321.09 790.922 318.786 792.88 316.135C794.837 313.444 795.816 310.548 795.816 307.449C795.816 304.309 795.061 301.515 793.553 299.068C792.084 296.622 790.005 294.542 787.313 292.829C781.767 289.362 774.467 287.629 765.413 287.629ZM897.912 310.446C897.789 313.587 897.157 316.462 896.015 319.072C894.874 321.682 893.365 324.027 891.489 326.106C889.613 328.227 887.431 330.123 884.943 331.795C882.456 333.427 879.805 334.834 876.991 336.016L894.792 364.033L882.129 368.193L865.001 339.625C863.044 339.992 861.005 340.298 858.884 340.543C856.804 340.788 854.5 340.91 851.972 340.91C849.933 340.91 847.69 340.828 845.243 340.665C842.837 340.461 840.308 340.115 837.657 339.625L837.902 365.562L824.995 366.052V279.493C828.502 278.433 832.009 277.638 835.516 277.108C839.024 276.578 842.225 276.17 845.12 275.884C848.505 275.558 851.747 275.375 854.847 275.334C857.498 275.334 860.434 275.517 863.655 275.884C866.877 276.251 870.099 276.904 873.321 277.842C876.583 278.78 879.744 280.085 882.802 281.757C885.82 283.429 888.491 285.549 890.816 288.119C893.1 290.729 894.894 293.869 896.199 297.539C897.504 301.209 898.075 305.512 897.912 310.446ZM854.847 287.629C853.909 287.629 852.95 287.65 851.972 287.69C851.034 287.731 850.055 287.792 849.035 287.874C847.323 287.996 845.426 288.18 843.346 288.425C841.267 288.628 839.248 288.955 837.29 289.403L837.535 328.37C839.452 328.737 841.369 329.002 843.285 329.165C845.243 329.287 847.139 329.349 848.974 329.349C853.868 329.349 858.497 328.798 862.86 327.697C867.265 326.555 871.118 325.005 874.422 323.048C877.725 321.09 880.355 318.786 882.313 316.135C884.27 313.444 885.249 310.548 885.249 307.449C885.249 304.309 884.495 301.515 882.986 299.068C881.518 296.622 879.438 294.542 876.746 292.829C871.2 289.362 863.9 287.629 854.847 287.629ZM998.05 322.191C998.05 326.555 997.5 330.735 996.398 334.732C994.237 342.725 990.261 349.698 984.47 355.652C981.574 358.629 978.455 361.097 975.111 363.054C971.644 365.134 967.933 366.745 963.977 367.887C960.062 369.029 955.984 369.6 951.743 369.6C947.379 369.6 943.281 369.029 939.447 367.887C931.536 365.603 924.725 361.525 919.016 355.652C916.324 352.879 913.918 349.678 911.798 346.048C909.799 342.541 908.25 338.789 907.149 334.793C906.048 330.755 905.497 326.555 905.497 322.191C905.497 317.828 906.048 313.627 907.149 309.59C909.351 301.475 913.307 294.501 919.016 288.669C921.789 285.855 924.909 283.388 928.375 281.267C931.801 279.228 935.492 277.658 939.447 276.557C943.403 275.415 947.502 274.844 951.743 274.844C955.984 274.844 960.083 275.395 964.039 276.496C971.95 278.78 978.761 282.837 984.47 288.669C987.284 291.524 989.71 294.725 991.749 298.273C993.788 301.78 995.338 305.553 996.398 309.59C997.5 313.627 998.05 317.828 998.05 322.191ZM985.938 322.191C985.938 319.01 985.53 315.891 984.715 312.832C983.043 306.796 980.106 301.617 975.906 297.294C973.867 295.174 971.563 293.339 968.993 291.789C963.733 288.608 957.983 287.018 951.743 287.018C947.012 287.018 942.588 287.956 938.469 289.831C934.35 291.667 930.741 294.175 927.641 297.356C924.542 300.537 922.095 304.268 920.301 308.55C918.547 312.791 917.67 317.338 917.67 322.191C917.67 327.044 918.547 331.612 920.301 335.894C922.095 340.176 924.542 343.907 927.641 347.088C930.741 350.269 934.35 352.798 938.469 354.674C942.588 356.509 947.012 357.426 951.743 357.426C954.883 357.426 957.921 356.998 960.858 356.142C966.608 354.511 971.624 351.493 975.906 347.088C977.986 344.927 979.78 342.562 981.289 339.992C982.757 337.382 983.899 334.589 984.715 331.612C985.53 328.594 985.938 325.454 985.938 322.191ZM1087.42 310.446C1087.3 313.587 1086.67 316.462 1085.53 319.072C1084.38 321.682 1082.88 324.027 1081 326.106C1079.12 328.227 1076.94 330.123 1074.45 331.795C1071.97 333.427 1069.32 334.834 1066.5 336.016L1084.3 364.033L1071.64 368.193L1054.51 339.625C1052.55 339.992 1050.52 340.298 1048.39 340.543C1046.31 340.788 1044.01 340.91 1041.48 340.91C1039.44 340.91 1037.2 340.828 1034.75 340.665C1032.35 340.461 1029.82 340.115 1027.17 339.625L1027.41 365.562L1014.51 366.052V279.493C1018.01 278.433 1021.52 277.638 1025.03 277.108C1028.53 276.578 1031.74 276.17 1034.63 275.884C1038.02 275.558 1041.26 275.375 1044.36 275.334C1047.01 275.334 1049.94 275.517 1053.17 275.884C1056.39 276.251 1059.61 276.904 1062.83 277.842C1066.09 278.78 1069.25 280.085 1072.31 281.757C1075.33 283.429 1078 285.549 1080.33 288.119C1082.61 290.729 1084.4 293.869 1085.71 297.539C1087.01 301.209 1087.59 305.512 1087.42 310.446ZM1044.36 287.629C1043.42 287.629 1042.46 287.65 1041.48 287.69C1040.54 287.731 1039.57 287.792 1038.55 287.874C1036.83 287.996 1034.94 288.18 1032.86 288.425C1030.78 288.628 1028.76 288.955 1026.8 289.403L1027.05 328.37C1028.96 328.737 1030.88 329.002 1032.8 329.165C1034.75 329.287 1036.65 329.349 1038.48 329.349C1043.38 329.349 1048.01 328.798 1052.37 327.697C1056.78 326.555 1060.63 325.005 1063.93 323.048C1067.24 321.09 1069.87 318.786 1071.82 316.135C1073.78 313.444 1074.76 310.548 1074.76 307.449C1074.76 304.309 1074.01 301.515 1072.5 299.068C1071.03 296.622 1068.95 294.542 1066.26 292.829C1060.71 289.362 1053.41 287.629 1044.36 287.629Z" fill="#256EF4"/>
<rect x="1126.88" y="324" width="40.32" height="41.76" fill="#256EF4"/>
<path d="M1157.84 310.32H1136.24L1112.48 66.2399H1181.6L1157.84 310.32Z" fill="#256EF4"/>
<path d="M667.321 441.746C667.152 439.679 665.802 438.498 663.06 438.498C660.402 438.498 659.221 439.51 659.179 440.945C659.137 442.506 660.571 443.391 663.398 443.982L665.929 444.573C672.51 445.965 675.421 449.171 675.463 453.854C675.421 459.845 670.823 463.22 663.102 463.22C655.213 463.22 650.109 459.76 650.024 452.251H657.702C657.829 455.077 659.812 456.596 662.976 456.596C665.718 456.596 667.195 455.457 667.237 453.854C667.195 452.377 665.971 451.534 662.554 450.774L659.474 450.099C654.116 448.918 650.826 446.26 650.826 441.535C650.784 435.756 655.888 431.874 663.06 431.874C670.401 431.874 674.999 435.798 675.041 441.746H667.321ZM689.765 463.262C682.382 463.262 677.952 458.495 677.952 451.449C677.952 444.404 682.382 439.637 689.765 439.637C697.148 439.637 701.535 444.404 701.535 451.449C701.535 458.495 697.148 463.262 689.765 463.262ZM689.807 457.356C692.043 457.356 693.393 455.035 693.393 451.407C693.393 447.737 692.043 445.459 689.807 445.459C687.487 445.459 686.095 447.737 686.095 451.407C686.095 455.035 687.487 457.356 689.807 457.356ZM704.995 462.84V439.932H712.715V444.235H712.968C713.812 441.071 715.71 439.637 718.199 439.637C718.916 439.637 719.634 439.721 720.266 439.89V446.766C719.465 446.471 718.115 446.345 717.271 446.345C714.782 446.345 712.968 448.116 712.968 450.774V462.84H704.995ZM723.009 462.84V439.932H730.729V444.235H730.982C731.826 441.071 733.724 439.637 736.213 439.637C736.93 439.637 737.648 439.721 738.28 439.89V446.766C737.479 446.471 736.129 446.345 735.285 446.345C732.796 446.345 730.982 448.116 730.982 450.774V462.84H723.009ZM746.296 471.446C744.777 471.446 743.427 471.404 742.373 471.32V465.371C743.47 465.456 744.482 465.456 745.368 465.456C746.507 465.456 747.309 465.329 747.773 464.232L747.941 463.81L739.884 439.932H748.195L752.034 455.921H752.287L756.21 439.932H764.563L756.126 464.823C754.86 468.62 752.202 471.446 746.296 471.446ZM774.73 459.549L770.807 471.91H765.449L767.39 459.549H774.73ZM791.901 471.446V439.932H799.79V443.898H800.001C800.887 441.62 802.996 439.637 806.455 439.637C811.054 439.637 815.441 443.138 815.441 451.407C815.441 459.296 811.307 463.135 806.371 463.135C803.08 463.135 800.929 461.363 800.001 459.085H799.874V471.446H791.901ZM799.705 451.365C799.705 454.824 801.098 457.018 803.502 457.018C805.865 457.018 807.257 454.866 807.257 451.365C807.257 447.906 805.865 445.796 803.502 445.796C801.098 445.796 799.705 447.906 799.705 451.365ZM817.888 456.512C817.888 451.449 821.643 449.509 826.326 449.213L831.684 449.002V447.146C831.684 445.881 830.629 445.163 829.068 445.163C827.423 445.163 826.368 445.881 826.157 447.315H818.774C819.07 443.138 822.445 439.637 829.195 439.637C835.565 439.637 839.657 442.759 839.657 447.188V462.84H832.19V459.634H832.021C830.671 462.123 828.393 463.22 825.355 463.22C820.968 463.22 817.888 461.068 817.888 456.512ZM825.398 456.048C825.398 457.398 826.452 458.115 827.929 458.115C829.912 458.115 831.768 456.849 831.726 454.698V453.474C830.924 453.495 828.815 453.58 827.76 453.685C826.326 453.854 825.398 454.824 825.398 456.048ZM854.634 471.91C847.799 471.91 843.834 468.788 843.496 464.401H851.216C851.47 465.877 852.904 466.51 854.845 466.51C857.08 466.51 858.684 465.582 858.684 462.798V458.874H858.473C857.587 461.152 855.182 462.545 852.018 462.545C847.082 462.545 842.948 459.254 842.948 451.365C842.948 443.138 847.335 439.637 851.934 439.637C855.393 439.637 857.502 441.62 858.388 443.898H858.599V439.932H866.573V462.84C866.573 468.662 861.805 471.91 854.634 471.91ZM854.887 456.849C857.291 456.849 858.726 454.824 858.726 451.365C858.726 447.906 857.291 445.796 854.887 445.796C852.524 445.796 851.174 447.906 851.174 451.365C851.174 454.866 852.524 456.849 854.887 456.849ZM881.718 463.262C874.42 463.262 869.948 458.832 869.948 451.449C869.948 444.362 874.462 439.637 881.549 439.637C888.341 439.637 892.855 444.024 892.855 451.365V453.263H877.837V453.559C877.837 455.921 879.355 457.609 881.887 457.609C883.616 457.609 885.009 456.849 885.515 455.541H892.813C892.012 460.266 887.962 463.262 881.718 463.262ZM877.837 448.791H885.473C885.43 446.724 883.827 445.29 881.718 445.29C879.588 445.29 877.9 446.745 877.837 448.791ZM908.718 462.84V439.932H916.691V462.84H908.718ZM912.684 437.443C910.49 437.443 908.718 435.798 908.718 433.773C908.718 431.748 910.49 430.102 912.684 430.102C914.877 430.102 916.649 431.748 916.649 433.773C916.649 435.798 914.877 437.443 912.684 437.443ZM934.284 447.315C934.115 445.881 932.765 444.995 931.077 444.995C929.559 444.995 928.335 445.585 928.377 446.598C928.335 447.315 928.884 447.948 930.698 448.285L935.254 449.129C939.937 449.973 942.173 451.956 942.215 455.331C942.173 460.182 937.574 463.262 931.288 463.262C924.37 463.262 920.362 460.182 919.898 455.541H927.829C928.082 457.018 929.39 457.862 931.33 457.862C932.934 457.862 934.073 457.271 934.115 456.259C934.073 455.331 933.271 454.824 931.415 454.487L927.407 453.77C922.766 452.926 920.446 450.606 920.446 447.062C920.446 442.337 924.454 439.637 930.909 439.637C937.405 439.637 941.413 442.506 941.624 447.315H934.284ZM965.882 449.888V462.84H957.909V439.932H965.46V444.235H965.713C966.726 441.366 969.341 439.637 972.716 439.637C977.568 439.637 980.732 443.181 980.69 448.243V462.84H972.716V449.888C972.759 447.526 971.493 446.134 969.341 446.134C967.232 446.134 965.882 447.526 965.882 449.888ZM995.793 463.262C988.41 463.262 983.98 458.495 983.98 451.449C983.98 444.404 988.41 439.637 995.793 439.637C1003.18 439.637 1007.56 444.404 1007.56 451.449C1007.56 458.495 1003.18 463.262 995.793 463.262ZM995.835 457.356C998.071 457.356 999.421 455.035 999.421 451.407C999.421 447.737 998.071 445.459 995.835 445.459C993.515 445.459 992.123 447.737 992.123 451.407C992.123 455.035 993.515 457.356 995.835 457.356ZM1024.48 439.932V445.712H1020.47V455.499C1020.47 456.596 1021.02 457.018 1022.12 457.06C1022.71 457.102 1023.89 457.018 1024.78 456.934V462.882C1024.02 463.009 1022.79 463.177 1020.98 463.177C1015.41 463.177 1012.46 461.068 1012.5 456.301V445.712H1009.55V439.932H1012.5V434.448H1020.47V439.932H1024.48ZM1053.84 439.932V445.712H1049.62V462.84H1041.65V445.712H1038.7V439.932H1041.65V439.131C1041.65 433.562 1044.81 430.862 1049.79 430.862C1051.56 430.862 1052.87 430.988 1054.22 431.284V437.063C1053.21 436.979 1052.54 436.937 1052.24 436.937C1050.64 436.937 1049.62 437.57 1049.62 439.131V439.932H1053.84ZM1067.26 463.262C1059.88 463.262 1055.45 458.495 1055.45 451.449C1055.45 444.404 1059.88 439.637 1067.26 439.637C1074.64 439.637 1079.03 444.404 1079.03 451.449C1079.03 458.495 1074.64 463.262 1067.26 463.262ZM1067.3 457.356C1069.54 457.356 1070.89 455.035 1070.89 451.407C1070.89 447.737 1069.54 445.459 1067.3 445.459C1064.98 445.459 1063.59 447.737 1063.59 451.407C1063.59 455.035 1064.98 457.356 1067.3 457.356ZM1097.3 452.841V439.932H1105.27V462.84H1097.72V458.495H1097.46C1096.45 461.406 1093.84 463.135 1090.42 463.135C1085.65 463.135 1082.49 459.591 1082.49 454.529V439.932H1090.46V452.884C1090.46 455.204 1091.69 456.638 1093.84 456.638C1095.9 456.638 1097.34 455.246 1097.3 452.841ZM1117.55 449.888V462.84H1109.57V439.932H1117.12V444.235H1117.38C1118.39 441.366 1121.01 439.637 1124.38 439.637C1129.23 439.637 1132.4 443.181 1132.35 448.243V462.84H1124.38V449.888C1124.42 447.526 1123.16 446.134 1121.01 446.134C1118.9 446.134 1117.55 447.526 1117.55 449.888ZM1144.84 463.135C1139.91 463.135 1135.77 459.296 1135.77 451.407C1135.77 443.138 1140.16 439.637 1144.76 439.637C1148.22 439.637 1150.33 441.62 1151.21 443.898H1151.34V432.296H1159.31V462.84H1151.42V459.085H1151.21C1150.28 461.363 1148.13 463.135 1144.84 463.135ZM1147.71 457.018C1150.11 457.018 1151.55 454.824 1151.55 451.365C1151.55 447.906 1150.11 445.796 1147.71 445.796C1145.35 445.796 1144 447.906 1144 451.365C1144 454.866 1145.35 457.018 1147.71 457.018Z" fill="#256EF4"/>
<rect width="9.87899" height="78.4329" transform="matrix(-0.707107 -0.707107 -0.707107 0.707107 138.445 279.986)" fill="#256EF4"/>
</svg>
