<svg width="400" height="120" viewBox="0 0 400 120" fill="none" xmlns="http://www.w3.org/2000/svg">
<rect width="400" height="120" rx="60" fill="#256EF4"/>
<path d="M80.6973 51.0381C79.2324 46.0576 75.2041 42.9814 69.418 42.9814C61.2148 42.9814 55.6484 49.2803 55.6484 60.4131C55.6484 71.6191 61.0684 77.9912 69.4912 77.9912C77.0718 77.9912 81.5762 73.7065 81.7227 67.0049H70.2236V58.7285H92.3428V65.3203C92.3428 79.2363 82.8213 87.7324 69.418 87.7324C54.5498 87.7324 44.4424 77.332 44.4424 60.5596C44.4424 43.3477 55.209 33.2402 69.1982 33.2402C81.1367 33.2402 90.3652 40.5645 91.8301 51.0381H80.6973ZM118.051 87.8057C106.039 87.8057 98.5684 79.5293 98.5684 67.2246C98.5684 54.9199 106.039 46.7168 118.051 46.7168C130.062 46.7168 137.606 54.9199 137.606 67.2246C137.606 79.5293 130.062 87.8057 118.051 87.8057ZM118.124 79.3828C123.69 79.3828 126.547 74.1826 126.547 67.2246C126.547 60.1934 123.69 54.9932 118.124 54.9932C112.484 54.9932 109.555 60.1934 109.555 67.2246C109.555 74.1826 112.484 79.3828 118.124 79.3828ZM176.864 64.002V87H166.024V33.9727H176.571V54.1875H177.011C178.842 49.5732 182.87 46.7168 188.876 46.7168C197.152 46.7168 202.646 52.2832 202.646 61.6582V87H191.806V63.5625C191.806 58.6553 189.169 55.7256 184.628 55.7256C180.087 55.7256 176.864 58.7285 176.864 64.002ZM228.866 87.8057C216.854 87.8057 209.384 79.5293 209.384 67.2246C209.384 54.9199 216.854 46.7168 228.866 46.7168C240.878 46.7168 248.422 54.9199 248.422 67.2246C248.422 79.5293 240.878 87.8057 228.866 87.8057ZM228.939 79.3828C234.506 79.3828 237.362 74.1826 237.362 67.2246C237.362 60.1934 234.506 54.9932 228.939 54.9932C223.3 54.9932 220.37 60.1934 220.37 67.2246C220.37 74.1826 223.3 79.3828 228.939 79.3828ZM255.233 87V47.2295H265.561V54.1875H266C267.685 49.5732 271.713 46.7168 277.06 46.7168C282.553 46.7168 286.581 49.5732 287.899 54.1875H288.266C289.95 49.6465 294.418 46.7168 300.277 46.7168C307.675 46.7168 312.802 51.624 312.802 60.2666V87H301.962V62.3906C301.962 57.8496 299.325 55.6523 295.736 55.6523C291.635 55.6523 289.291 58.5088 289.291 62.6836V87H278.744V62.0977C278.744 58.1426 276.254 55.6523 272.592 55.6523C268.93 55.6523 266.073 58.582 266.073 63.123V87H255.233ZM339.169 87.8057C327.011 87.8057 319.54 79.8955 319.54 67.2979C319.54 54.9932 327.084 46.7168 338.729 46.7168C349.203 46.7168 357.406 53.3086 357.406 66.8584V69.9346H330.233C330.233 75.9404 333.822 79.6758 339.389 79.6758C343.051 79.6758 345.688 78.0645 346.786 75.6475H357.113C355.575 82.9717 348.983 87.8057 339.169 87.8057ZM330.233 63.123H347.152C347.152 58.2891 343.783 54.8467 338.949 54.8467C333.969 54.8467 330.417 58.5454 330.233 63.123Z" fill="white"/>
</svg>
